Coordinates
version=1
nRows=16
nColumns=40
inDegrees=yes

Units are S.I. units (second, meters, Newtons, ...)
Angles are in degrees.

endheader
time	pelvis_tilt	pelvis_list	pelvis_rotation	pelvis_tx	pelvis_ty	pelvis_tz	hip_flexion_r	hip_adduction_r	hip_rotation_r	knee_angle_r	knee_angle_r_beta	ankle_angle_r	subtalar_angle_r	mtp_angle_r	hip_flexion_l	hip_adduction_l	hip_rotation_l	knee_angle_l	knee_angle_l_beta	ankle_angle_l	subtalar_angle_l	mtp_angle_l	lumbar_extension	lumbar_bending	lumbar_rotation	arm_flex_r	arm_add_r	arm_rot_r	elbow_flex_r	pro_sup_r	wrist_flex_r	wrist_dev_r	arm_flex_l	arm_add_l	arm_rot_l	elbow_flex_l	pro_sup_l	wrist_flex_l	wrist_dev_l
     28.99000000	     -5.56968929	     -3.20754062	     -1.05159071	      1.02563398	      0.92423026	      0.40743302	     31.16991647	     -2.80518764	    -12.81597614	     18.16416421	     18.16416421	      2.57946946	     -0.14545517	      8.69770901	      2.70770551	     -3.31246510	    -10.47431846	     12.61712216	     12.61712216	     16.69553348	     -4.31276009	     -5.06700412	    -11.35848296	      4.43051248	      1.66126861	    -15.44305763	    -13.37935610	     -6.84419155	     25.73025065	     46.97610330	      0.00000000	      0.00000000	     15.17455706	    -18.11639473	    -14.90506954	     94.64710951	     48.24615885	      0.00000000	      0.00000000
     29.00200000	     -5.50542840	     -2.95828157	     -0.97682920	      1.02737189	      0.92244760	      0.40936488	     30.52310160	     -2.91658002	    -13.29269194	     18.13878596	     18.13878596	      2.53295448	     -0.22711085	      8.45794222	      1.75041500	     -3.14148646	    -10.64544351	     12.15327260	     12.15327260	     17.10402501	     -3.77901606	     -5.41739704	    -11.05182318	      4.07290136	      1.69653985	    -16.61621577	    -13.13945028	     -7.06562107	     26.19005005	     46.95058727	      0.00000000	      0.00000000	     15.17435347	    -18.17528256	    -15.07816463	     96.30712346	     48.29929880	      0.00000000	      0.00000000
     29.01400000	     -5.61265271	     -2.83678119	     -0.88833648	      1.02891776	      0.92044015	      0.41150135	     30.04141730	     -2.88431451	    -13.67681241	     18.28151661	     18.28151661	      2.56771805	     -0.50984567	      8.40101234	      1.23003637	     -3.14970680	    -10.58977961	     12.12926782	     12.12926782	     17.61974596	     -3.79680453	     -5.61317685	    -10.49499723	      3.85998191	      1.52387220	    -17.14885005	    -13.02131941	     -7.08488277	     26.09264617	     46.94984458	      0.00000000	      0.00000000	     15.24370891	    -18.26479900	    -15.15894675	     96.55265098	     48.31067034	      0.00000000	      0.00000000
     29.02600000	     -5.58411344	     -2.79640241	     -0.62138677	      1.03065557	      0.91864253	      0.41351172	     29.49565102	     -2.88069745	    -14.05773946	     18.78330395	     18.78330395	      2.70588321	     -0.96269209	      8.08123629	      0.54119765	     -3.25266967	    -10.37855135	     12.05243045	     12.05243045	     18.08994489	     -3.57004458	     -5.77608421	    -10.11090435	      3.83415798	      1.49703079	    -17.97723660	    -12.72400499	     -7.10114488	     25.99714525	     46.94426665	      0.00000000	      0.00000000	     15.30718260	    -18.30092223	    -15.29838021	     97.28405691	     48.33638004	      0.00000000	      0.00000000
     29.03800000	     -5.51181328	     -2.65785728	     -0.58361661	      1.03230402	      0.91683934	      0.41583470	     29.12514748	     -2.87471137	    -13.91144846	     19.64159586	     19.64159586	      2.46036728	     -1.81623741	      5.99163697	     -0.16037055	     -3.31031170	    -10.73664878	     12.10749964	     12.10749964	     18.75494640	     -2.85680391	     -5.70557310	    -10.00238051	      3.57160933	      1.77042946	    -18.74953445	    -12.47603631	     -7.32464371	     27.06881517	     46.89066396	      0.00000000	      0.00000000	     14.84308224	    -17.93072197	    -15.55754767	    100.45381564	     48.42730708	      0.00000000	      0.00000000
     29.05000000	     -5.43389792	     -2.80086381	     -0.39857390	      1.03379152	      0.91548540	      0.41816612	     28.63888285	     -2.65154400	    -14.09910023	     20.35260231	     20.35260231	      2.70789350	     -2.29178817	      5.45769715	     -0.68210196	     -3.67652170	    -10.54029142	     12.41621847	     12.41621847	     19.19707019	     -2.94386595	     -5.76133040	     -9.79057610	      3.71138277	      1.74505496	    -18.89941597	    -12.34952503	     -7.31667212	     27.14435888	     46.88242365	      0.00000000	      0.00000000	     14.67320509	    -17.85508046	    -15.64977215	    100.72356034	     48.43996202	      0.00000000	      0.00000000
     29.06200000	     -5.44823923	     -2.84620477	     -0.23651875	      1.03498206	      0.91397292	      0.42067407	     28.26688958	     -2.39401119	    -13.72542044	     20.81765605	     20.81765605	      1.25006960	     -3.99660217	     -0.22584726	     -0.58269030	     -4.12803298	    -10.82448089	     13.81344322	     13.81344322	     20.84428224	     -2.19981009	     -3.80738449	     -9.61410331	      3.68045010	      1.29068328	    -18.78815067	    -12.50689516	     -6.42080657	     27.97719011	     46.71477085	      0.00000000	      0.00000000	     13.80075633	    -17.57481357	    -16.93734175	    102.71538146	     48.61731702	      0.00000000	      0.00000000
     29.07400000	     -5.39143105	     -2.97687939	     -0.10169665	      1.03595733	      0.91306942	      0.42315279	     28.05260294	     -2.14502961	    -13.47900518	     21.78706840	     21.78706840	      1.82100562	     -4.77044806	     -0.64461363	     -0.69460172	     -4.54408043	    -10.52906833	     14.77292756	     14.77292756	     21.20034397	     -2.72174769	     -3.85222672	     -9.53868641	      3.81110967	      1.46841541	    -18.53236684	    -12.42948332	     -6.28721563	     28.00856864	     46.69970810	      0.00000000	      0.00000000	     13.61043534	    -17.31536229	    -16.91049191	    103.12095147	     48.62871931	      0.00000000	      0.00000000
     29.08600000	     -5.32649515	     -3.14848676	      0.03439710	      1.03675420	      0.91256800	      0.42568551	     27.83777529	     -1.84081735	    -13.21762038	     22.67631455	     22.67631455	      2.41812675	     -5.55212243	     -1.03462534	     -0.60864789	     -5.04440745	    -10.17854667	     16.08342285	     16.08342285	     21.48034197	     -3.38007870	     -3.80370867	     -9.52131611	      4.01371212	      1.61986389	    -18.03454550	    -12.40529868	     -6.13913758	     28.07192542	     46.68501424	      0.00000000	      0.00000000	     13.24936391	    -16.96093083	    -16.97538063	    103.45518558	     48.64308900	      0.00000000	      0.00000000
     29.09800000	     -5.05345704	     -3.30824094	      0.10412389	      1.03754684	      0.91283406	      0.42833596	     27.34812312	     -1.52033987	    -12.95453423	     23.42190541	     23.42190541	      3.11794447	     -5.96666484	     -1.38673698	     -0.77492711	     -5.53451946	     -9.93988538	     17.32929651	     17.32929651	     21.55132189	     -4.01773694	     -3.83394134	     -9.78394387	      4.17029678	      1.84419527	    -17.29398267	    -12.38024140	     -6.05720638	     28.25224205	     46.67580777	      0.00000000	      0.00000000	     12.72125480	    -16.47624741	    -16.89036825	    103.43079946	     48.63608373	      0.00000000	      0.00000000
     29.11000000	     -5.21394227	     -3.53854458	      0.26123361	      1.03768273	      0.91263183	      0.43101651	     27.36106967	     -1.05864265	    -12.44986210	     24.07372424	     24.07372424	      3.73972857	     -7.20821244	     -1.40887585	      0.25723959	     -6.19421142	     -9.27495271	     19.85665926	     19.85665926	     21.99213445	     -5.15037181	     -3.00277689	     -9.62402691	      4.40173075	      1.28881425	    -15.82610799	    -12.61912406	     -5.10558471	     27.82558927	     46.61140046	      0.00000000	      0.00000000	     11.61471539	    -16.16540873	    -18.10800414	    104.25359662	     48.75160727	      0.00000000	      0.00000000
     29.12200000	     -5.03442522	     -3.70527830	      0.39917660	      1.03794090	      0.91327912	      0.43356648	     26.89011489	     -0.75868724	    -12.39730921	     24.54194188	     24.54194188	      4.45501426	     -7.45686090	     -1.65253754	      0.84904641	     -6.77770256	     -8.79833424	     22.19907100	     22.19907100	     21.70882616	     -6.21242004	     -3.27371225	     -9.88257282	      4.60584865	      1.45342762	    -14.83591845	    -12.76198563	     -4.94017019	     28.03708933	     46.59505177	      0.00000000	      0.00000000	     11.10509350	    -15.73238324	    -18.01128113	    103.97315421	     48.74112110	      0.00000000	      0.00000000
     29.13400000	     -4.96787507	     -3.83987037	      0.51551823	      1.03797916	      0.91401483	      0.43613584	     26.45555154	     -0.44343325	    -12.23046208	     24.79367156	     24.79367156	      5.11245126	     -7.73153703	     -1.75990528	      1.79303552	     -7.32806308	     -8.20703508	     24.89312531	     24.89312531	     21.11063978	     -7.51669455	     -3.65708815	    -10.01463553	      4.79256957	      1.51774852	    -13.63455958	    -12.90471488	     -4.73925491	     28.32722898	     46.57366182	      0.00000000	      0.00000000	     10.37576992	    -15.27132453	    -17.97376713	    103.50015017	     48.73013967	      0.00000000	      0.00000000
     29.14600000	     -4.82554642	     -3.97308811	      0.64373965	      1.03796340	      0.91499649	      0.43867057	     25.85175239	     -0.14295671	    -12.27227260	     24.88876200	     24.88876200	      5.70606355	     -7.88933413	     -1.83764154	      2.85240964	     -7.88822021	     -7.60759259	     27.90198349	     27.90198349	     20.24220623	     -8.94147533	     -4.15035591	    -10.23251221	      4.93825766	      1.58326615	    -12.33267079	    -13.10972753	     -4.58583408	     28.70539271	     46.55392688	      0.00000000	      0.00000000	      9.64480942	    -14.84929661	    -17.89851348	    102.89300832	     48.71298242	      0.00000000	      0.00000000
     29.15800000	     -4.70186641	     -4.10046296	      0.79461722	      1.03778655	      0.91601870	      0.44109420	     25.20590353	      0.14130796	    -12.35631135	     24.85900859	     24.85900859	      6.25474740	     -7.89811142	     -1.92229911	      4.15940195	     -8.44258777	     -6.94474314	     31.23446648	     31.23446648	     19.01958012	    -10.47990441	     -4.70863924	    -10.45891385	      5.09714546	      1.60159032	    -10.91612713	    -13.35082472	     -4.45529886	     29.18141317	     46.53305882	      0.00000000	      0.00000000	      8.86204857	    -14.40998784	    -17.74522017	    102.09901894	     48.68626585	      0.00000000	      0.00000000
     29.17000000	     -4.56344640	     -4.19628389	      0.94323028	      1.03750681	      0.91707731	      0.44341014	     24.48957421	      0.38240130	    -12.53566833	     24.72542700	     24.72542700	      6.70930707	     -7.79796631	     -2.00837393	      5.61837524	     -8.95862822	     -6.30898982	     34.78833471	     34.78833471	     17.47642950	    -11.99597316	     -5.19864199	    -10.69077494	      5.23473054	      1.62836026	     -9.44079540	    -13.61007217	     -4.35848216	     29.73682871	     46.51243752	      0.00000000	      0.00000000	      8.07818725	    -13.97335594	    -17.50221453	    101.17145999	     48.65038025	      0.00000000	      0.00000000
